<?xml version="1.0" encoding="UTF-8" standalone="no"?><!DOCTYPE svg PUBLIC "-//W3C//DTD SVG 1.1//EN" "http://www.w3.org/Graphics/SVG/1.1/DTD/svg11.dtd"><svg width="100%" height="100%" viewBox="0 0 1080 1230" version="1.1" xmlns="http://www.w3.org/2000/svg" xmlns:xlink="http://www.w3.org/1999/xlink" xml:space="preserve" xmlns:serif="http://www.serif.com/" style="fill-rule:evenodd;clip-rule:evenodd;stroke-linejoin:round;stroke-miterlimit:2;"><g><path d="M369.681,1221.35c-10.897,-10.896 -12.792,-32.215 -5.686,-63.01c2.369,-9.948 3.317,-18.002 2.369,-18.002c-1.421,0 -10.896,4.264 -21.319,9.949c-52.113,26.53 -153.496,36.479 -208.452,20.371c-77.696,-22.74 -130.756,-83.381 -135.968,-155.392c-2.368,-31.741 0.948,-36.005 28.426,-36.005c24.161,0 45.006,19.424 72.01,65.852c37.901,65.852 64.431,81.012 127.441,71.537c102.804,-14.686 192.818,-82.433 241.615,-181.448c29.372,-59.693 40.743,-118.913 29.846,-156.813c-8.054,-27.478 -17.529,-38.374 -37.426,-43.112c-10.423,-2.842 -22.741,1.421 -60.167,20.845c-25.583,13.266 -50.692,24.162 -55.43,24.162c-13.265,-0.474 -48.796,-18.003 -51.639,-26.057c-4.738,-11.37 24.162,-42.638 108.49,-118.912c85.276,-76.748 116.544,-109.438 117.017,-120.334c0,-4.264 -3.316,-12.318 -7.58,-18.476c-6.632,-9.475 -10.896,-10.897 -27.477,-8.528c-10.897,1.421 -39.796,11.844 -64.431,22.74c-65.378,28.899 -77.696,30.794 -105.174,12.792c-12.791,-7.58 -22.74,-15.634 -22.74,-18.003c0,-4.264 50.218,-52.113 69.642,-65.378c49.271,-34.584 119.386,-57.798 173.868,-57.325c48.323,0 68.221,6.633 81.96,27.478c23.687,35.532 13.739,64.431 -58.272,169.605c-47.376,69.168 -49.271,79.117 -21.793,112.279c9.475,11.371 18.95,21.319 20.372,21.319c1.421,0.474 7.58,-10.896 13.738,-24.161c43.112,-97.12 113.702,-221.717 174.342,-306.52c40.27,-57.324 123.177,-141.652 156.813,-160.603c39.322,-22.266 65.378,-27.004 96.173,-18.002c51.639,15.16 75.8,54.008 78.643,128.861c8.527,215.085 -177.658,424.011 -422.59,473.281c-51.639,10.423 -52.113,10.423 -65.852,30.321c-12.791,18.476 -30.32,69.642 -25.582,74.379c0.947,0.948 18.476,-1.421 39.321,-5.211c68.695,-13.265 162.972,-26.057 193.766,-26.057c24.635,0 32.689,1.895 43.112,10.897c18.476,16.108 12.317,28.425 -23.214,45.48c-53.534,25.583 -172.447,48.323 -248.248,48.323c-37.9,-0.473 -44.533,0.948 -48.323,8.528c-2.842,4.737 -20.845,47.849 -40.269,95.698c-48.797,120.334 -48.323,119.387 -58.746,128.862c-15.16,13.739 -40.743,15.634 -52.586,3.79Zm331.154,-490.81c143.074,-33.163 262.461,-165.341 296.097,-326.891c9.475,-46.428 9.475,-101.384 -0.473,-115.123c-10.897,-15.634 -53.061,-14.686 -87.171,2.369c-94.278,46.902 -229.772,255.354 -255.828,393.69c-5.685,30.321 -1.895,53.061 9.001,53.061c4.264,0 21.319,-3.316 38.374,-7.106Z" style="fill:#fff;fill-rule:nonzero;"/><path d="M433.164,287.105c-35.532,-31.268 -40.269,-74.38 -15.16,-128.861c37.9,-80.539 117.017,-134.547 224.559,-153.023c37.901,-6.633 50.692,-6.633 81.486,-1.895c83.381,13.265 138.811,56.85 138.811,108.963c0,23.688 -7.581,42.638 -31.268,74.854c-38.374,52.586 -228.824,114.175 -354.369,114.648c-23.688,0 -29.373,-1.895 -44.059,-14.686Zm184.29,-67.273c47.376,-19.424 99.489,-49.271 123.651,-70.59c30.32,-26.056 18.95,-50.218 -31.268,-67.747c-35.058,-12.317 -99.015,-5.685 -138.337,15.16c-37.426,18.951 -79.117,73.906 -79.117,103.753c0,7.58 5.685,17.529 15.16,26.53c14.213,12.791 17.529,14.213 41.691,12.318c15.16,-1.422 43.585,-9.475 68.22,-19.424Z" style="fill:#fff;fill-rule:nonzero;"/></g></svg>