<?xml version="1.0" encoding="UTF-8"?>
<svg version="1.0" width="259px" heigth="228px" viewBox="0 0 2277.9 2594.6" preserveAspectRatio="xMidYMid meet" xmlns="http://www.w3.org/2000/svg" xmlns:cc="http://creativecommons.org/ns#" xmlns:dc="http://purl.org/dc/elements/1.1/" xmlns:rdf="http://www.w3.org/1999/02/22-rdf-syntax-ns#" fill="#FFFFFF">
 <metadata>
  <rdf:RDF>
   <cc:Work rdf:about="">
    <dc:format>image/svg+xml</dc:format>
    <dc:type rdf:resource="http://purl.org/dc/dcmitype/StillImage"/>
    <dc:title/>
   </cc:Work>
  </rdf:RDF>
 </metadata>
 <g transform="translate(-300.68 -142.94)">
  <path d="m1081 2721c-23-23-27-68-12-133 5-21 7-38 5-38-3 0-23 9-45 21-110 56-324 77-440 43-164-48-276-176-287-328-5-67 2-76 60-76 51 0 95 41 152 139 80 139 136 171 269 151 217-31 407-174 510-383 62-126 86-251 63-331-17-58-37-81-79-91-22-6-48 3-127 44-54 28-107 51-117 51-28-1-103-38-109-55-10-24 51-90 229-251 180-162 246-231 247-254 0-9-7-26-16-39-14-20-23-23-58-18-23 3-84 25-136 48-138 61-164 65-222 27-27-16-48-33-48-38 0-9 106-110 147-138 104-73 252-122 367-121 102 0 144 14 173 58 50 75 29 136-123 358-100 146-104 167-46 237 20 24 40 45 43 45 3 1 16-23 29-51 91-205 240-468 368-647 85-121 260-299 331-339 83-47 138-57 203-38 109 32 160 114 166 272 18 454-375 895-892 999-109 22-110 22-139 64-27 39-64 147-54 157 2 2 39-3 83-11 145-28 344-55 409-55 52 0 69 4 91 23 39 34 26 60-49 96-113 54-364 102-524 102-80-1-94 2-102 18-6 10-44 101-85 202-103 254-102 252-124 272-32 29-86 33-111 8zm699-1036c302-70 554-349 625-690 20-98 20-214-1-243-23-33-112-31-184 5-199 99-485 539-540 831-12 64-4 112 19 112 9 0 45-7 81-15z"/>
  <path d="m1215 749c-75-66-85-157-32-272 80-170 247-284 474-323 80-14 107-14 172-4 176 28 293 120 293 230 0 50-16 90-66 158-81 111-483 241-748 242-50 0-62-4-93-31zm389-142c100-41 210-104 261-149 64-55 40-106-66-143-74-26-209-12-292 32-79 40-167 156-167 219 0 16 12 37 32 56 30 27 37 30 88 26 32-3 92-20 144-41z"/>
 </g>
</svg>
