<svg version="1" xmlns="http://www.w3.org/2000/svg" width="1640" height="1640" viewBox="0 0 1230.000000 1230.000000"><path d="M749.9.4c-.2.2-3.3.7-6.9 1-3.6.4-9 1.1-12 1.6s-7.3 1.2-9.5 1.5c-21.1 3.1-52 11.2-75.5 19.8C579.5 48.7 527 92.9 497.7 149c-8.4 16.1-16.4 37.7-18.3 49.5-.3 2.1-.8 4.7-1 5.9-1.2 5.3-1.1 23.8.1 31.2 2.8 16.9 11.5 33.4 24.6 46.5 11.8 11.9 21 17.4 31.2 18.8 6.5.9 36 .7 48.7-.3 9.4-.7 18.7-1.6 22-2.1 1.4-.2 5.4-.6 9-1 3.6-.3 7.2-.8 8-1 .8-.2 3.5-.7 6-1 6-.8 13.7-2.1 23.5-3.9 4.4-.8 9.6-1.7 11.5-2.1 1.9-.3 8.7-1.7 15-3.1 6.3-1.4 12.6-2.7 14-3 1.9-.4 27.9-7 34.5-8.8 41.7-11.3 89.3-28.9 120-44.4 15.9-8 35.2-19.5 41.5-24.8 6.6-5.4 16.8-15.7 19.3-19.4 1.7-2.5 3.3-4.7 3.7-5 1.9-1.6 13.9-21.6 17.6-29.5 5.7-12 8.4-22.6 8.9-35 .5-14-1.2-23-6.7-35.5-15-33.9-59.1-62.4-114.8-74.4-10.5-2.3-12.1-2.6-15.7-3.1-1.8-.2-4.8-.7-6.5-1-1.8-.3-5.1-.8-7.3-1.1-4.8-.6-36.1-1.5-36.6-1zm12.1 76c28.8 3.6 60.2 19.6 68.2 34.9 3 5.8 2.9 14.4-.3 21.2-2.4 5.1-12.5 16.1-20.9 22.7-24 18.8-72.2 46-109 61.3-6.3 2.6-12.8 5.3-14.5 6-5.4 2.3-30.8 10.4-39 12.4-13.8 3.4-20.6 4.4-32.8 4.6-11.3.3-12 .2-17.7-2.6-13.5-6.8-27.9-25.1-28.4-36.3-.5-9.2 6-27 15.1-41.4 10-15.8 30.7-39.5 41.8-47.7 2.2-1.7 4.6-3.6 5.4-4.3.7-.7 3.8-2.8 6.7-4.7C658 88.8 690 78.9 721 76.4c4.7-.3 8.6-.7 8.8-.9.5-.4 27 .3 32.2.9zM1038 200.3c-.3.3-2.5.7-5 1-16.9 1.7-48.3 15.8-67.2 30-24.2 18.2-56.3 48.9-91.3 87.2-8.9 9.8-28.9 33.6-37.5 44.6-11 14-21.4 28.8-43 60.9-1 1.4-7.5 11.5-14.6 22.5-4.3 6.7-16.8 26.9-23.5 38-7.4 12.3-7 11.7-10.5 17.7-1.6 2.9-8.2 14.3-14.6 25.3-11.2 19.4-14.1 24.7-23.6 42.5-2.5 4.7-5.8 10.7-7.3 13.5-5.4 9.6-40.4 80.1-44.8 90-6 13.7-16.9 35.4-19 38.2l-1.8 2.2-4.9-4.7c-11.1-10.7-25.8-29.3-30.1-38.2-2.3-4.6-2.7-6.9-2.8-14 0-16.3 5-25.9 44-84.5 31.8-47.6 40.8-62.4 51-83 10.4-21.1 13.7-32.2 13.6-46.6 0-14.8-9.3-34-21.3-44.2-8.4-7.2-23.2-12.7-38.7-14.4-14.6-1.6-59.9-.8-69.6 1.3-1.1.2-3.1.6-4.5.8-43.5 7.1-91.4 26-127.3 50.1-11.9 7.9-14.3 9.8-27.7 21.5-16.4 14.3-45 42.2-46.9 45.8-1.4 2.6 2.6 6.7 14.1 14.5 5.4 3.7 10 6.7 10.3 6.7.3 0 2.3 1.2 4.4 2.6 6.5 4.3 16.8 7.4 24.6 7.4 7.8 0 21.5-3.1 34-7.7 8.2-3.1 57.4-23.6 60.9-25.5 1.1-.6 3.1-1.4 4.5-1.8 1.4-.5 6.4-2.3 11.1-4 20.6-7.5 39.2-10.6 46.1-7.7 6 2.5 13.8 13.8 15.9 23.1 1 4.5.9 5.2-2 10.2-3.4 6-4.2 7-15.6 19.8-8.4 9.4-35.2 35.8-53.4 52.6-5.7 5.2-12 11.1-14 13-2.1 1.9-7.3 6.6-11.6 10.5-8.4 7.6-8.3 7.5-20.4 18.5-4.5 4.1-9.4 8.6-10.9 9.9-3.4 3.1-22.5 20.7-32.1 29.6-23.9 22.2-53.6 53.6-59.8 63-2.9 4.6-5.2 10.2-5.2 13.2 0 4.6 7.8 11 22.5 18.2 14.5 7.2 25 10.5 30.8 9.8 5.8-.6 21.2-7.4 54.2-23.7 46.1-22.7 51.3-24.2 66-18.9 12.2 4.4 18.5 10.6 25 24.4 4.7 9.9 7.9 21 9.5 32.5 1.1 7.6.7 34.3-.5 41-.4 1.9-1.3 7.1-2.1 11.5-2.7 14.4-4.5 21.5-9.7 38-14.1 44.4-40.5 91.6-70 125.3-5.5 6.2-27 27.7-32.8 32.7-20.7 18-42.9 32.8-67.4 45-24.8 12.3-47.1 20.3-72 25.6-3.3.7-6.2 1.3-6.5 1.4-.3.1-4.5.7-9.5 1.4-4.9.7-11.5 1.7-14.5 2.1-10.4 1.5-32 1-41.2-1-28.7-6.3-46.8-23.4-75.8-72-23.7-39.7-40-57.3-59-63.7-8-2.6-26.7-2.4-33.1.5-7 3.1-8.4 6.7-8.4 21.7 0 10.9 1 23.7 2 27.5.2.8.7 3.1 1 5 3.6 21 17.3 49.9 33.2 69.8 6.3 7.8 22.5 23.8 29.8 29.2 3.3 2.5 6.2 4.8 6.5 5.1.3.3 5.2 3.5 11 7 24.6 15.2 51.1 25.1 76 28.4 3 .4 6.3.9 7.3 1.1 11.5 2.1 53.5 2.1 73.2 0 1.1-.2 5.2-.6 9-1 3.9-.4 9.3-1.1 12-1.6 2.8-.5 6.6-1.1 8.5-1.4 1.9-.3 4.9-.7 6.5-1 7.5-1.4 10.1-1.9 11-2.1 14.9-3.5 39-10.5 42-12.3.6-.4 1.2-.7 1.5-.8 1.4-.2 7.4-3 19.3-8.9 7.2-3.6 14-6.5 15-6.5 2.1 0 2 1.4-1.8 20-3.7 18.2-4.6 30.2-2.9 40.5 2 12.6 9.5 22.6 19.3 25.8 17.5 5.6 38.8-2.3 50-18.6 2.5-3.7 5.3-9.3 9.6-19.2.7-1.7 2.1-4.8 3-7 2.1-4.6 8.9-20.9 11.5-27.5 3.9-9.8 11.2-27.7 12.6-30.7.7-1.7 1.4-3.4 1.4-3.8 0-.3.9-2.5 1.9-4.8 1.1-2.3 5.8-13.9 10.6-25.7 11.2-27.7 13.2-32.6 15.6-37.7 1-2.4 1.9-4.6 1.9-4.9 0-.3.6-2 1.4-3.7.8-1.8 2.7-6.1 4.1-9.7 3.5-8.4 5.3-12.8 7-16.5.8-1.7 3.1-7.1 5.1-12 6.7-16.1 9.1-18.6 18.9-20 2.8-.4 16.3-.8 30-1 23.5-.3 32.6-.7 47-2 19.2-1.7 19.5-1.8 29-2.9 2.2-.3 6.5-.8 9.5-1.2 3-.3 5.7-.7 6-.9.3-.2 3-.6 6-1 4.9-.5 19-2.8 26-4.1 1.4-.2 4-.7 5.9-1 4-.7 4.5-.8 14.1-2.7 4.1-.9 8.6-1.8 10-2.1 36.8-6.9 87.9-23.4 109.3-35.3 20.3-11.4 26.6-19.6 22.7-29.8-1.6-4.2-12-13.9-18-16.8-5.3-2.6-7.3-3.1-15.6-4.2-4.8-.7-27-.7-34.4-.1-3 .3-9.1.8-13.4 1.1-4.4.4-8.7.8-9.5 1-.9.1-4.5.6-8.1 1-3.6.3-7.6.8-9 1-1.4.2-5 .6-8 .9-5.6.6-9.1 1.1-15.8 2.1-2 .2-5.7.7-8.2 1-2.5.3-5.6.8-7 1-1.4.2-8.8 1.3-16.5 2.5-7.7 1.1-15 2.2-16.2 2.5-1.2.2-5.7.9-10 1.5-9.5 1.4-11.1 1.6-14.3 2.4-1.4.3-4.3.8-6.5 1.1-2.2.3-13.7 2.3-25.5 4.5-41.2 7.4-48.6 8.2-49.7 5.4-1-2.6 1.4-13.6 6.1-27.7 9.1-27.4 17.8-44.3 29-56.6 6.2-6.7 16.1-10.5 39.3-15.1 4.1-.8 25.9-5.5 30.3-6.5.8-.2 3.8-.9 6.5-1.5 2.8-.6 5.7-1.3 6.5-1.5 2.7-.5 19.2-5.3 31-8.8 35.4-10.7 78.6-29.6 113.5-49.6 17-9.8 50.2-32 62.5-41.8.8-.7 5.3-4.3 10-8s9.4-7.6 10.5-8.8c1.1-1.1 3-2.8 4.3-3.7 3.4-2.4 23.3-21.1 33.8-31.9 27.3-28 50.4-58.1 71.9-93.4 7.4-12.2 22.6-42.4 28.8-57.5 8.6-20.9 18.7-52.6 22.3-70.5 2.5-12.3 5-27.6 5.8-35 3.1-28.6 3.5-54.1 1.1-77.5-1.2-11.9-1.8-16.2-3.7-25-7.2-33.7-21.2-56.6-44.1-71.4-4.7-3.1-8.8-5.6-9.1-5.6-.3 0-2.9-1.1-5.8-2.4-13.7-6.2-23.8-8.6-38.8-9.2-6.9-.4-12.7-.4-13-.1zm13.9 78.2c12.3 2.2 19.9 7.8 22.6 16.7 3.3 10.6 4.3 22.5 3.9 45.3-.2 12.1-.5 23.6-.8 25.5-.3 1.9-.8 5.5-1.1 8-1.4 12-2.1 16.4-4.5 28.5-1.5 7.9-1.6 8.4-5.9 24.6-11.4 43.5-28.9 84.6-52.1 122.4-5.9 9.6-23.4 35.3-24.9 36.5-.3.3-1.9 2.3-3.6 4.5-12.6 17.3-39.3 45.3-58.6 61.7-41.3 34.9-84 58.6-132.4 73.3-15.4 4.7-44.8 10.9-56 11.9-3.3.3-7.1-2.1-8.8-5.7-7.3-15.4-3.3-49.6 11-94.2 20.9-65.4 60.8-143.4 106.6-208.5 8.7-12.4 27.6-37.7 29.9-40.1.7-.8 2.9-3.4 4.7-5.9 1.9-2.5 3.9-5 4.5-5.5.7-.6 2.2-2.4 3.5-4 8-10.4 39.7-43 51.6-53.1 8.4-7.1 20.8-16.4 28.5-21.4 12-7.7 33.7-17 42.2-18.1.2 0 2.1-.4 4.3-.9 2.2-.6 6.5-1.3 9.5-1.6 3-.4 5.6-.7 5.8-.9.5-.4 16.6.4 20.1 1z"/></svg>